<svg width="240" height="240" viewBox="0 0 240 240" fill="none" xmlns="http://www.w3.org/2000/svg">
<circle cx="120" cy="120" r="110" stroke="#191923" stroke-width="20"/>
<circle cx="120" cy="120" r="110" stroke="#191923" stroke-width="20"/>
<path d="M120 10C134.445 10 148.749 12.8452 162.095 18.3733C175.441 23.9013 187.567 32.0038 197.782 42.2183C207.996 52.4327 216.099 64.559 221.627 77.9048C227.155 91.2507 230 105.555 230 120C230 134.445 227.155 148.749 221.627 162.095C216.099 175.441 207.996 187.567 197.782 197.782C187.567 207.996 175.441 216.099 162.095 221.627C148.749 227.155 134.445 230 120 230C105.555 230 91.2506 227.155 77.9048 221.627C64.559 216.099 52.4327 207.996 42.2182 197.782C32.0038 187.567 23.9012 175.441 18.3732 162.095C12.8452 148.749 9.99999 134.445 10 120C10 105.555 12.8452 91.2506 18.3733 77.9048C23.9013 64.559 32.0038 52.4326 42.2183 42.2182C52.4328 32.0038 64.5591 23.9012 77.9049 18.3732C91.2507 12.8452 105.555 9.99999 120 10L120 10Z" stroke="#FFC107" stroke-width="20"/>
</svg>
